<svg xmlns="http://www.w3.org/2000/svg" width="240" height="192" viewBox="0 0 240 192"><rect width="100%" height="100%" fill="#DDDDDD"/><path fill="#999999" d="M57.15 103.885h5.94q.64 0 1.02.36.37.36.37.95v2.37H48.61v-1.31q0-.4.17-.84.17-.44.53-.79l7.03-7.04q.88-.9 1.57-1.72.7-.81 1.16-1.61.47-.8.72-1.63.24-.82.24-1.73 0-.83-.24-1.47-.24-.63-.68-1.06-.44-.43-1.05-.65-.62-.21-1.39-.21-.7 0-1.3.2-.6.2-1.06.56-.47.36-.79.84-.32.48-.48 1.05-.27.74-.7.98-.43.24-1.25.11l-2.08-.37q.24-1.66.93-2.92.69-1.25 1.72-2.09 1.03-.84 2.37-1.27 1.33-.42 2.87-.42 1.6 0 2.93.47 1.32.47 2.27 1.34.94.86 1.47 2.08.53 1.21.53 2.7 0 1.28-.38 2.37-.37 1.09-1.01 2.08-.63.99-1.48 1.92-.84.93-1.77 1.89l-5.22 5.32q.75-.22 1.5-.34.74-.12 1.41-.12Zm13.16-5.04h7.04v-7.57q0-1.07.14-2.37l-7.18 9.94Zm10.48 0h2.91v2.29q0 .32-.21.55-.21.23-.59.23h-2.11v5.65h-3.44v-5.65h-9.76q-.4 0-.71-.25-.3-.24-.38-.61l-.42-2 10.96-14.64h3.75v14.43Zm21.48-2.85q0 3.03-.64 5.26-.65 2.23-1.8 3.69-1.14 1.45-2.7 2.16-1.56.72-3.37.72t-3.35-.72q-1.54-.71-2.68-2.16-1.14-1.46-1.78-3.69-.64-2.23-.64-5.26 0-3.04.64-5.26.64-2.23 1.78-3.68 1.14-1.46 2.68-2.17 1.54-.71 3.35-.71t3.37.71q1.56.71 2.7 2.17 1.15 1.45 1.8 3.68.64 2.22.64 5.26Zm-4.08 0q0-2.51-.36-4.16-.37-1.65-.99-2.62-.61-.98-1.41-1.37-.8-.39-1.67-.39-.85 0-1.64.39-.79.39-1.4 1.37-.61.97-.97 2.62-.36 1.65-.36 4.16 0 2.51.36 4.16.36 1.65.97 2.63.61.97 1.4 1.36.79.4 1.64.4.87 0 1.67-.4.8-.39 1.41-1.36.62-.98.99-2.63.36-1.65.36-4.16Zm29.49 6.27-2.09 2.07-5.43-5.43-5.47 5.46-2.1-2.06 5.48-5.49-5.22-5.22 2.08-2.08 5.22 5.22 5.18-5.19 2.11 2.08-5.2 5.2 5.44 5.44Zm21.91 2.34h4.16v2.96h-12.8v-2.96h4.68v-13.49q0-.8.05-1.65l-3.33 2.79q-.28.22-.56.28-.28.05-.53.01-.25-.05-.44-.17-.19-.12-.29-.27l-1.25-1.71 7.06-6h3.25v20.21Zm11.44-13.23q0 1.93 1 2.95 1 1.02 2.84 1.02.96 0 1.71-.31.75-.3 1.26-.83t.78-1.25q.26-.72.26-1.55 0-.94-.29-1.69-.28-.74-.81-1.25-.53-.52-1.26-.79t-1.59-.27q-.9 0-1.62.3-.72.29-1.23.82t-.78 1.26q-.27.72-.27 1.59Zm-1.94 16.19 7.18-8.98q.28-.33.52-.65t.46-.64q-.8.51-1.76.77-.96.27-2.02.27-1.2 0-2.35-.42-1.15-.41-2.05-1.25-.89-.84-1.44-2.08-.56-1.24-.56-2.91 0-1.55.58-2.91t1.62-2.38q1.04-1.03 2.49-1.62 1.46-.59 3.22-.59 1.77 0 3.19.56t2.42 1.57q1 1 1.53 2.41.54 1.41.54 3.09 0 1.07-.19 2.03-.18.96-.52 1.85-.33.89-.81 1.74-.48.84-1.07 1.68l-5.3 7.55q-.27.38-.82.65-.54.26-1.23.26h-3.63Zm24.98-3.68H190q.64 0 1.02.36.37.36.37.95v2.37h-15.87v-1.31q0-.4.17-.84.17-.44.54-.79l7.02-7.04q.88-.9 1.58-1.72.69-.81 1.16-1.61.46-.8.71-1.63.25-.82.25-1.73 0-.83-.24-1.47-.24-.63-.68-1.06-.44-.43-1.06-.65-.62-.21-1.38-.21-.71 0-1.31.2-.6.2-1.06.56-.47.36-.79.84-.32.48-.48 1.05-.27.74-.7.98-.43.24-1.25.11l-2.08-.37q.24-1.66.93-2.92.69-1.25 1.72-2.09 1.03-.84 2.37-1.27 1.33-.42 2.87-.42 1.6 0 2.93.47t2.27 1.34q.94.86 1.47 2.08.53 1.21.53 2.7 0 1.28-.38 2.37-.37 1.09-1 2.08-.64.99-1.48 1.92-.85.93-1.78 1.89l-5.22 5.32q.76-.22 1.5-.34.74-.12 1.42-.12Z"/></svg>