<svg xmlns="http://www.w3.org/2000/svg" width="192" height="96" viewBox="0 0 192 96"><rect width="100%" height="100%" fill="#DDDDDD"/><path fill="#999999" d="M47.65 56.075h3.9v2.77h-12v-2.77h4.39v-12.65q0-.75.05-1.54l-3.12 2.61q-.27.21-.54.26-.26.05-.49.01-.23-.05-.41-.16-.18-.11-.27-.25l-1.17-1.6 6.61-5.63h3.05v18.95Zm10.72-12.41q0 1.81.94 2.77.94.95 2.66.95.9 0 1.61-.28.7-.29 1.18-.79.48-.49.73-1.17.25-.67.25-1.45 0-.89-.27-1.58-.27-.7-.77-1.18-.49-.48-1.18-.73-.68-.26-1.49-.26-.84 0-1.51.28-.68.28-1.16.77-.48.49-.73 1.18-.26.68-.26 1.49Zm-1.81 15.18 6.73-8.41q.26-.32.48-.62.23-.3.44-.6-.75.48-1.65.73-.9.25-1.89.25-1.13 0-2.21-.39-1.08-.4-1.92-1.18-.84-.79-1.36-1.95-.51-1.16-.51-2.72 0-1.46.54-2.74.54-1.27 1.51-2.23.98-.96 2.34-1.52 1.37-.55 3.02-.55 1.66 0 2.99.53 1.33.52 2.26 1.47.94.94 1.44 2.26.51 1.32.51 2.9 0 1-.18 1.9-.17.9-.48 1.73-.32.84-.77 1.63-.45.8-1 1.58l-4.97 7.08q-.25.36-.76.6-.51.25-1.16.25h-3.4Zm23.41-3.45h5.57q.6 0 .95.34t.35.89v2.22H71.96v-1.23q0-.37.16-.79.16-.41.5-.74l6.59-6.6q.82-.84 1.47-1.6.66-.77 1.09-1.52.44-.75.67-1.52.23-.77.23-1.63 0-.78-.22-1.37-.23-.59-.64-1-.41-.4-.99-.61-.58-.2-1.3-.2-.66 0-1.22.19-.56.19-1 .52-.43.34-.73.79t-.45.99q-.26.69-.66.92-.41.22-1.17.1l-1.95-.34q.22-1.56.87-2.74.64-1.18 1.61-1.97.97-.78 2.22-1.18 1.25-.4 2.69-.4 1.5 0 2.75.44 1.24.45 2.13 1.26.88.8 1.38 1.94.49 1.15.49 2.54 0 1.2-.35 2.22-.35 1.02-.95 1.95-.59.93-1.38 1.8-.8.87-1.67 1.77l-4.89 5q.71-.22 1.4-.33.7-.11 1.33-.11Zm31.32-1.51-1.96 1.93-5.09-5.09-5.13 5.12-1.96-1.93 5.13-5.15-4.89-4.89 1.95-1.95 4.88 4.89 4.86-4.86 1.98 1.95-4.87 4.88 5.1 5.1Zm13.86-10.22q0 1.81.94 2.77.93.95 2.66.95.9 0 1.6-.28.71-.29 1.19-.79.48-.49.73-1.17.24-.67.24-1.45 0-.89-.27-1.58-.27-.7-.76-1.18-.5-.48-1.18-.73-.68-.26-1.49-.26-.84 0-1.52.28-.67.28-1.15.77-.48.49-.74 1.18-.25.68-.25 1.49Zm-1.82 15.18 6.74-8.41q.25-.32.48-.62.23-.3.43-.6-.75.48-1.65.73-.9.25-1.89.25-1.12 0-2.2-.39-1.08-.4-1.92-1.18-.84-.79-1.36-1.95-.52-1.16-.52-2.72 0-1.46.54-2.74.54-1.27 1.52-2.23.97-.96 2.34-1.52 1.36-.55 3.01-.55 1.67 0 3 .53 1.32.52 2.26 1.47.94.94 1.44 2.26.5 1.32.5 2.9 0 1-.17 1.9-.17.9-.49 1.73-.31.84-.76 1.63-.45.8-1.01 1.58l-4.96 7.08q-.26.36-.77.6-.51.25-1.15.25h-3.41Zm28.53-21.69-6.43 7.88-.75.93q.63-.32 1.36-.49.72-.17 1.56-.17 1.23 0 2.4.4 1.16.41 2.04 1.22.89.82 1.43 2.04.54 1.21.54 2.83 0 1.51-.56 2.84-.55 1.33-1.56 2.32-1 .99-2.42 1.56-1.42.57-3.13.57-1.74 0-3.12-.56-1.38-.55-2.35-1.55-.98-.99-1.49-2.4-.52-1.4-.52-3.11 0-1.53.62-3.14t1.93-3.36l5.17-6.94q.27-.36.79-.61.52-.26 1.19-.26h3.3Zm-5.59 18.9q.88 0 1.63-.3.74-.3 1.27-.84t.83-1.27q.3-.72.3-1.58 0-.93-.28-1.67-.29-.75-.81-1.26-.53-.52-1.26-.79-.74-.27-1.62-.27-.89 0-1.61.3-.72.3-1.23.83t-.79 1.26q-.29.73-.29 1.57 0 .9.25 1.64.25.75.74 1.27t1.2.82q.72.29 1.67.29Z"/></svg>